<svg id="Layer_1" data-name="Layer 1" xmlns="http://www.w3.org/2000/svg" viewBox="0 0 300 300"><defs><style>.cls-1{fill:gray;}.cls-2{fill:none;stroke:gray;stroke-miterlimit:10;stroke-width:4.5px;}.cls-3{font-size:39px;fill:#666;font-family:KannadaMN, Kannada MN;}</style></defs><title>shioaji-logo</title><path class="cls-1" d="M155,26.83l44,38.14,9.63,40.12-55.26,127L116.4,191.13,91.84,101.37,155,26.83M154.14,16,83.4,99.5l26.1,95.4L155.58,246l61-140.22-10.8-45L154.14,16Z"/><polygon class="cls-1" points="158.01 23.63 133.99 104.95 129.65 103.77 150.09 21.47 158.01 23.63"/><line class="cls-2" x1="87.72" y1="99.32" x2="131.82" y2="104.36"/><polygon class="cls-1" points="214.02 109.8 162.38 129.48 160.66 125.32 211.08 102.7 214.02 109.8"/><polygon class="cls-1" points="88.93 96.2 162.06 125.75 160.44 129.95 86.51 102.44 88.93 96.2"/><path class="cls-1" d="M203.57,64.33a6.52,6.52,0,0,1-.16,2.69,8.08,8.08,0,0,1-1,2.2l-2.53,4-5.05,8q-5.09,8-10.25,15.93l-5.19,7.92L174.18,113c-3.54,5.23-7.08,10.47-10.75,15.62l-3.82-2.38c3-5.56,6.17-11,9.32-16.51l4.78-8.18,4.84-8.14q4.87-8.13,9.82-16.2l5-8.05,2.49-4a8.08,8.08,0,0,1,1.56-1.82,6.52,6.52,0,0,1,2.35-1.32Z"/><line class="cls-2" x1="131.82" y1="104.36" x2="201.66" y2="63.14"/><polygon class="cls-1" points="161.42 127.94 130.48 106.16 133.16 102.56 162.88 125.96 161.42 127.94"/><polygon class="cls-1" points="163.77 127.54 158.95 236.09 150.95 235.61 159.27 127.26 163.77 127.54"/><text class="cls-3" transform="translate(82.1 278.15)">SHIOAJI</text></svg>