<svg id="Layer_1" data-name="Layer 1" xmlns="http://www.w3.org/2000/svg" viewBox="0 0 148 255.6"><defs><style>.cls-1{fill:#FDFDFD;}.cls-2{fill:none;stroke:#FDFDFD;stroke-miterlimit:10;stroke-width:5px;}</style></defs><title>shioaji-logo</title><path class="cls-1" d="M155.53,34.26l48.84,42.38,10.7,44.58L153.67,262.3l-41-45.49L85.38,117.08l70.15-82.82M154.6,22.2,76,115l29,106,51.2,56.8L224,122,212,72,154.6,22.2Z" transform="translate(-76 -22.2)"/><polygon class="cls-1" points="82.9 8.5 56.21 98.86 51.39 97.54 74.1 6.1 82.9 8.5"/><line class="cls-2" x1="4.8" y1="92.6" x2="53.8" y2="98.2"/><polygon class="cls-1" points="145.13 104.24 87.76 126.11 85.84 121.49 141.87 96.36 145.13 104.24"/><polygon class="cls-1" points="6.14 89.14 87.4 121.97 85.6 126.63 3.46 96.06 6.14 89.14"/><path class="cls-1" d="M209.52,75.92a7.24,7.24,0,0,1-.17,3,9,9,0,0,1-1.06,2.44l-2.81,4.45-5.61,8.9q-5.65,8.88-11.39,17.7l-5.77,8.8L176.87,130c-3.93,5.81-7.87,11.63-11.95,17.35l-4.24-2.65c3.35-6.18,6.85-12.26,10.35-18.35l5.31-9.09,5.38-9q5.41-9,10.91-18l5.54-8.95,2.77-4.47a9,9,0,0,1,1.73-2,7.24,7.24,0,0,1,2.61-1.47Z" transform="translate(-76 -22.2)"/><line class="cls-2" x1="53.8" y1="98.2" x2="131.4" y2="52.4"/><polygon class="cls-1" points="86.68 124.39 52.31 100.2 55.29 96.19 88.32 122.2 86.68 124.39"/><polygon class="cls-1" points="89.3 123.95 83.95 244.57 75.05 244.03 84.31 123.65 89.3 123.95"/></svg>